Coordinates
version=1
nRows=17
nColumns=40
inDegrees=yes

Units are S.I. units (second, meters, Newtons, ...)
Angles are in degrees.

endheader
time	pelvis_tilt	pelvis_list	pelvis_rotation	pelvis_tx	pelvis_ty	pelvis_tz	hip_flexion_r	hip_adduction_r	hip_rotation_r	knee_angle_r	knee_angle_r_beta	ankle_angle_r	subtalar_angle_r	mtp_angle_r	hip_flexion_l	hip_adduction_l	hip_rotation_l	knee_angle_l	knee_angle_l_beta	ankle_angle_l	subtalar_angle_l	mtp_angle_l	lumbar_extension	lumbar_bending	lumbar_rotation	arm_flex_r	arm_add_r	arm_rot_r	elbow_flex_r	pro_sup_r	wrist_flex_r	wrist_dev_r	arm_flex_l	arm_add_l	arm_rot_l	elbow_flex_l	pro_sup_l	wrist_flex_l	wrist_dev_l
     58.69750000	     -3.66692953	     -3.77676184	      6.93104618	      1.04816613	      0.93305609	      0.53474731	      9.84892618	      1.93140886	    -17.19752045	     14.85577202	     14.85577202	     10.12504692	     -3.20214854	     -5.51107400	     33.08736417	    -11.53769926	      1.91056796	     45.57541547	     45.57541547	      9.66430613	    -17.97475384	     10.34932777	     -9.98559215	      4.40250496	      2.18283724	     30.60717772	    -21.98319642	     -2.96901379	     81.81714680	     44.65964780	      0.00000000	      0.00000000	     -3.02616330	     -7.24368656	     -2.30335362	     25.86700327	     45.77663830	      0.00000000	      0.00000000
     58.71071429	     -3.94141904	     -3.73420897	      7.24338158	      1.04662943	      0.93287566	      0.53456522	      9.62247974	      1.91071915	    -17.50596138	     14.38855339	     14.38855339	     10.05641929	     -3.01726101	     -6.03624703	     33.38222809	    -11.11504448	      1.95631774	     41.98220683	     41.98220683	      9.67481953	    -17.65802575	     10.69666645	     -9.93614991	      4.36998647	      2.61436172	     31.76727341	    -22.63767594	     -3.12970988	     84.42713726	     44.61173950	      0.00000000	      0.00000000	     -4.17927841	     -7.16358205	     -1.26602303	     26.82085633	     45.55910249	      0.00000000	      0.00000000
     58.72392857	     -4.14801612	     -3.71574385	      7.54761253	      1.04511717	      0.93265932	      0.53425032	      9.34617019	      1.92628296	    -17.72177257	     13.95715774	     13.95715774	      9.94060309	     -2.99159204	     -6.75429112	     33.45170457	    -10.68781465	      2.09087404	     38.23379252	     38.23379252	      9.20469618	    -17.17773595	     10.00943899	     -9.90906611	      4.37708639	      3.11967063	     32.97623008	    -23.12243822	     -3.70829922	     86.38355966	     44.74160695	      0.00000000	      0.00000000	     -5.40697689	     -7.78701560	      4.47179921	     28.08867425	     44.69183255	      0.00000000	      0.00000000
     58.73714286	     -4.47853427	     -3.94506668	      7.82216061	      1.04353564	      0.93196496	      0.53390595	      9.38152741	      2.14775967	    -17.95453266	     13.81523893	     13.81523893	     10.06777968	     -3.02617228	     -6.82492642	     33.80968325	    -10.48853002	      2.38213809	     34.86139768	     34.86139768	      9.25435672	    -16.11343091	     10.46907574	     -9.62904192	      4.64112650	      3.48592559	     34.52394118	    -23.53221353	     -3.98585247	     87.11904405	     44.73565004	      0.00000000	      0.00000000	     -6.12206659	     -7.46994144	      4.51643235	     27.94532303	     44.67626694	      0.00000000	      0.00000000
     58.75035714	     -4.57182605	     -3.83130143	      8.01387271	      1.04236132	      0.93194404	      0.53339434	      8.85045927	      2.06387960	    -18.30136102	     13.22795544	     13.22795544	     10.17028815	     -2.33159925	     -7.03813501	     33.49150328	     -9.99723150	      2.51358077	     31.23147607	     31.23147607	      8.90099691	    -15.03943530	     10.38125708	     -9.80751292	      4.52552942	      3.46450866	     35.85985453	    -23.46572692	     -3.82053115	     89.52023707	     44.68339908	      0.00000000	      0.00000000	     -7.28483944	     -7.35512073	      4.52949847	     28.57540128	     44.68477637	      0.00000000	      0.00000000
     58.76357143	     -4.73358050	     -3.87744393	      8.22280495	      1.04111521	      0.93150819	      0.53276707	      8.59209257	      2.12583880	    -18.46882899	     12.95908955	     12.95908955	     10.34911081	     -2.27279447	     -7.12680954	     33.43735229	     -9.68823472	      2.57308165	     28.14121913	     28.14121913	      8.75155646	    -13.51057765	     10.71643973	     -9.73357697	      4.58099688	      3.68818325	     37.28921161	    -23.54753570	     -3.99211306	     90.41312112	     44.67229410	      0.00000000	      0.00000000	     -7.89039529	     -7.10361443	      4.59452108	     28.53864459	     44.67297513	      0.00000000	      0.00000000
     58.77678571	     -4.86460351	     -3.99025192	      8.39060136	      1.04008288	      0.93107616	      0.53213460	      8.25451388	      2.26961074	    -18.67387086	     12.60900333	     12.60900333	     10.50731437	     -2.02299349	     -7.23566479	     33.34268547	     -9.48801483	      2.57063917	     25.38044738	     25.38044738	      8.55734739	    -11.83417597	     10.96643386	     -9.66694564	      4.69984623	      3.85332276	     38.57959043	    -23.48966082	     -4.08370939	     91.41240510	     44.65481336	      0.00000000	      0.00000000	     -8.57163210	     -6.89458870	      4.64459896	     28.54714330	     44.66200134	      0.00000000	      0.00000000
     58.79000000	     -4.98871741	     -4.12229433	      8.51855137	      1.03916700	      0.93062124	      0.53141942	      7.89088597	      2.43528150	    -18.89046367	     12.23022997	     12.23022997	     10.63668194	     -1.70115207	     -7.33660903	     33.24737459	     -9.33687557	      2.41338633	     23.02182265	     23.02182265	      8.31102571	    -10.15006064	     11.15640257	     -9.62377984	      4.83051771	      4.00642758	     39.73974794	    -23.37833438	     -4.15374615	     92.31716864	     44.63879597	      0.00000000	      0.00000000	     -9.17060468	     -6.69896652	      4.68575752	     28.60754230	     44.65307522	      0.00000000	      0.00000000
     58.80321429	     -5.14451334	     -4.38976994	      8.64941856	      1.03835680	      0.92997364	      0.53061239	      7.63147733	      2.72150995	    -19.10206944	     11.96273064	     11.96273064	     10.79869621	     -1.47757244	     -7.43511126	     33.32614119	     -9.29109643	      2.27423892	     21.24978345	     21.24978345	      7.94707833	     -8.81082609	     11.38354229	     -9.43645976	      5.12425692	      4.20592678	     40.80257674	    -23.39664989	     -4.29307458	     92.93651825	     44.63133879	      0.00000000	      0.00000000	     -9.69145720	     -6.49370964	      4.71976355	     28.60932902	     44.64361139	      0.00000000	      0.00000000
     58.81642857	     -5.01664487	     -4.47371174	      8.72184681	      1.03813924	      0.92989975	      0.52972093	      6.76135479	      2.91929534	    -19.42992428	     11.24239420	     11.24239420	     10.92260343	     -0.65357316	     -7.53573582	     32.93500389	     -9.25758214	      1.40207761	     19.79609857	     19.79609857	      7.60725665	     -6.93054506	     10.98919585	     -9.57408197	      5.18759818	      4.14678516	     41.63628929	    -22.83992529	     -4.31455755	     93.90343419	     44.61678241	      0.00000000	      0.00000000	    -10.37153346	     -6.41383792	      4.76288891	     28.91771991	     44.64044442	      0.00000000	      0.00000000
     58.82964286	     -5.10570122	     -4.63471686	      8.77534485	      1.03783966	      0.92938092	      0.52871387	      6.33924521	      3.11261875	    -19.58797201	     10.89584550	     10.89584550	     11.10544241	     -0.33475257	     -7.60865608	     32.81935989	     -9.16796370	      0.80967465	     18.80859270	     18.80859270	      7.13360626	     -6.02105221	     10.94382791	     -9.40292804	      5.32029606	      4.32137993	     42.31861018	    -22.62285129	     -4.40992802	     94.28308200	     44.61640340	      0.00000000	      0.00000000	    -10.72659681	     -6.30537238	      4.80204889	     29.01606500	     44.63620814	      0.00000000	      0.00000000
     58.84285714	     -5.03140598	     -4.80282361	      8.78831324	      1.03792474	      0.92904044	      0.52758790	      5.57951198	      3.36566777	    -19.83475760	     10.28578961	     10.28578961	     11.24968890	      0.40728053	     -7.64652937	     32.53029771	     -9.18327152	     -0.12274463	     18.30189933	     18.30189933	      6.55661932	     -5.06714122	     10.23368666	     -9.37939767	      5.49789625	      4.31726031	     42.86382331	    -22.07722832	     -4.60125804	     94.63727953	     44.62609697	      0.00000000	      0.00000000	    -11.20469511	     -6.25034818	      4.88628845	     29.24655376	     44.63206881	      0.00000000	      0.00000000
     58.85607143	     -5.02552765	     -4.96138107	      8.78005040	      1.03812319	      0.92853793	      0.52633607	      4.97806172	      3.57316222	    -19.96866805	      9.86153424	      9.86153424	     11.45648551	      0.87814569	     -7.65802570	     32.22112373	     -9.13396660	     -0.89206352	     18.04253530	     18.04253530	      5.93134169	     -4.72675535	      9.74906772	     -9.23346580	      5.62974724	      4.38944332	     43.26076396	    -21.66508233	     -4.76736852	     94.79407771	     44.63686272	      0.00000000	      0.00000000	    -11.45145124	     -6.20627365	      4.96397635	     29.38293093	     44.62837348	      0.00000000	      0.00000000
     58.86928571	     -5.08362864	     -5.13219850	      8.74333411	      1.03842952	      0.92777831	      0.52493030	      4.61551873	      3.72245948	    -19.94748835	      9.79034737	      9.79034737	     11.75762654	      0.95870622	     -7.74084961	     32.00826552	     -9.05547845	     -1.45649128	     18.19624622	     18.19624622	      5.46036041	     -4.91613787	      9.81725236	     -8.96780418	      5.75313534	      4.53895748	     43.31126968	    -21.52203148	     -4.77185721	     94.82597623	     44.63728802	      0.00000000	      0.00000000	    -11.57674152	     -6.19154753	      4.97427254	     29.37294922	     44.62640463	      0.00000000	      0.00000000
     58.88250000	     -4.98499303	     -5.23992962	      8.58775846	      1.03917287	      0.92719867	      0.52347819	      3.87469446	      3.87363549	    -19.89574377	      9.38656155	      9.38656155	     12.01333600	      1.48174099	     -7.72599072	     31.51723541	     -9.02952475	     -2.17229331	     18.55658944	     18.55658944	      5.00969195	     -5.18359764	      9.41702889	     -8.84685090	      5.82094866	      4.68494860	     43.30183312	    -20.96686351	     -4.89458280	     94.83351095	     44.64485459	      0.00000000	      0.00000000	    -11.67985745	     -6.17062323	      5.02896538	     29.44022896	     44.62208121	      0.00000000	      0.00000000
     58.89571429	     -4.82108005	     -5.44736399	      8.53273705	      1.04018271	      0.92655692	      0.52176205	      3.10109025	      4.07498616	    -20.30563437	      9.10508456	      9.10508456	     12.54604608	      2.58548542	     -7.18059716	     30.71335333	     -9.04183207	     -2.65809451	     18.51337646	     18.51337646	      3.11362094	     -5.83503647	      5.55969392	     -8.74453099	      6.00948834	      4.52248415	     43.29574107	    -19.98900447	     -5.81082684	     94.29043804	     44.73658696	      0.00000000	      0.00000000	    -12.03472359	     -6.35877924	      5.51139304	     30.12491015	     44.61169058	      0.00000000	      0.00000000
     58.90892857	     -4.74921723	     -5.56567515	      8.38434567	      1.04110885	      0.92580748	      0.52000731	      2.55186140	      4.16290826	    -20.14806493	      9.04139639	      9.04139639	     12.87302573	      2.71382388	     -7.22897397	     30.14511256	     -8.99062395	     -3.00504933	     18.98757783	     18.98757783	      2.85561740	     -6.30632621	      5.55384411	     -8.56394061	      6.08294743	      4.59863891	     42.91091982	    -19.70221568	     -5.74989120	     94.19352409	     44.73880072	      0.00000000	      0.00000000	    -11.93124140	     -6.41431075	      5.52956596	     30.15423142	     44.61540873	      0.00000000	      0.00000000
